<svg class="icon" viewBox="120 120 790 790" xmlns="http://www.w3.org/2000/svg" width="100" height="100"><defs><style/></defs><path d="M823.93 238.554l-304.26-108.53c-6.122-3.213-12.127-3.213-18.275 0l-304.4 108.67c-12.27 6.289-21.326 19.168-21.326 31.895v220.247c0 44.61 9.198 89.35 24.4 127.673 42.653 111.727 137.008 169.208 225.222 226.686 24.397 12.868 48.655 28.809 69.982 44.75 6.122 3.223 12.129 6.44 18.275 6.44 6.122 0 12.108-3.217 15.18-6.44 24.374-16.108 45.582-28.81 69.959-44.75 88.235-57.478 182.592-114.96 225.243-226.686 15.344-38.322 24.399-79.709 24.399-127.673v-220.41c0-12.729-9.198-25.443-24.4-31.872zm-20.41 251.179c0 41.02-6.523 78.769-19.424 112.892-38.853 95.66-123.078 150.3-213.68 208.528-19.423 13.629-38.85 23.966-58.274 37.583-19.426-13.617-38.85-23.953-58.275-37.583-90.608-54.618-174.831-109.431-213.705-208.528-12.903-34.287-19.425-71.872-19.425-112.892V277.756l291.405-102.383 291.379 102.383v211.977zm-537.974 2.887c0 35.12 5.514 67.297 16.446 96.657 32.87 84.845 104.14 131.767 180.809 178.535 16.448 11.672 32.87 20.514 49.315 32.177V223.456l-246.57 87.66V492.62z"/></svg>