<?xml version="1.0" standalone="no"?><!DOCTYPE svg PUBLIC "-//W3C//DTD SVG 1.1//EN" "http://www.w3.org/Graphics/SVG/1.1/DTD/svg11.dtd"><svg t="1574660915426" class="icon" viewBox="0 0 1024 1024" version="1.1" xmlns="http://www.w3.org/2000/svg" p-id="3863" xmlns:xlink="http://www.w3.org/1999/xlink" width="128" height="128"><defs><style type="text/css"></style></defs><path d="M960 128 192 128l0 896 518.4 0 0 0L960 1024 960 128 960 128 960 128zM832 0 64 0l0 896 64 0L128 64l704 0L832 0 832 0zM320 256l448 0 0 128L320 384 320 256 320 256 320 256zM320 512l448 0 0 128L320 640 320 512 320 512 320 512zM320 768l448 0 0 128L320 896 320 768 320 768 320 768z" p-id="3864"></path></svg>