<svg class="icon" viewBox="0 0 1024 1024" xmlns="http://www.w3.org/2000/svg" width="200" height="200"><defs><style/></defs><path d="M781.995 453.632V293.547c0-146.774-119.126-265.899-265.899-265.899h-9.899c-146.773 0-265.898 119.125-265.898 265.899v160.085H146.09v549.888h732.16V453.632h-96.256zM595.627 902.827H429.739l40.618-177.835c-24.234-14.336-40.618-40.96-40.618-71.339 0-45.738 37.205-82.944 82.944-82.944 45.738 0 82.944 37.206 82.944 82.944 0 30.379-16.384 57.003-40.96 71.68l40.96 177.494zm53.248-449.195H373.419V293.547c0-73.387 59.733-132.779 132.778-132.779h9.899c73.387 0 132.779 59.733 132.779 132.779v160.085zm0 0"/></svg>