<?xml version="1.0" standalone="no"?><!DOCTYPE svg PUBLIC "-//W3C//DTD SVG 1.1//EN" "http://www.w3.org/Graphics/SVG/1.1/DTD/svg11.dtd"><svg t="1652407816431" class="icon" viewBox="0 0 1024 1024" version="1.1" xmlns="http://www.w3.org/2000/svg" p-id="1284" xmlns:xlink="http://www.w3.org/1999/xlink" width="200" height="200"><defs><style type="text/css">@font-face { font-family: feedback-iconfont; src: url("//at.alicdn.com/t/font_1031158_u69w8yhxdu.woff2?t=1630033759944") format("woff2"), url("//at.alicdn.com/t/font_1031158_u69w8yhxdu.woff?t=1630033759944") format("woff"), url("//at.alicdn.com/t/font_1031158_u69w8yhxdu.ttf?t=1630033759944") format("truetype"); }
</style></defs><path d="M963.8 218.17a72.85 72.85 0 0 0-57.513-63.903 1357.957 1357.957 0 0 1-185.96-42.816 690.8 690.8 0 0 1-166.15-97.134 76.046 76.046 0 0 0-88.827 0 435.824 435.824 0 0 1-167.428 96.495 624.34 624.34 0 0 1-180.848 44.733A67.738 67.738 0 0 0 60.2 219.449s-1.917 160.398-1.917 301.626c0 255.615 301.626 502.923 452.439 502.923S917.153 849.54 958.05 524.909c10.224-191.712 3.195-306.1 3.195-306.1zM799.567 415.634L484.52 712.787a42.816 42.816 0 0 1-52.4 5.112l-8.308-7.03-173.82-180.848a42.816 42.816 0 0 1 63.905-58.79l143.145 150.173 283.733-268.397a42.816 42.816 0 1 1 58.791 63.904" p-id="1285"></path></svg>