<svg class="icon" viewBox="0 0 1024 1024" xmlns="http://www.w3.org/2000/svg" width="200" height="200"><defs><style/></defs><path d="M982.784 316.006L523.52 579.38a25.6 25.6 0 0 1-25.498 0L38.758 316.006a25.6 25.6 0 0 1 0-44.39L497.971 8.192a25.6 25.6 0 0 1 25.447 0l459.315 263.373a25.6 25.6 0 0 1 0 44.39z"/><path d="M498.33 699.7L85.504 468.786a25.6 25.6 0 0 0-27.546 1.639l-25.907 18.79a25.6 25.6 0 0 0 2.304 42.906l463.719 265.932a25.6 25.6 0 0 0 25.446 0l463.462-265.728a25.6 25.6 0 0 0 2.202-43.059l-23.757-16.998a25.6 25.6 0 0 0-27.29-1.587L523.265 699.75a25.6 25.6 0 0 1-24.883-.05z"/><path d="M498.33 913.818L85.453 682.906a25.6 25.6 0 0 0-27.546 1.638L32 703.334a25.6 25.6 0 0 0 2.304 42.957l463.718 265.882a25.6 25.6 0 0 0 25.447 0L986.93 746.445a25.6 25.6 0 0 0 2.202-43.008l-23.757-17.05a25.6 25.6 0 0 0-27.29-1.587L523.264 913.92a25.6 25.6 0 0 1-24.883-.102z"/></svg>